<svg width="211" height="48" viewBox="0 0 211 48" fill="none" xmlns="http://www.w3.org/2000/svg">
<path d="M61.0455 9.90909V39H54.4545L43.9432 23.7159H43.7727V39H35.875V9.90909H42.5795L52.9205 25.1364H53.1477V9.90909H61.0455ZM75.3494 39.3977C73.0199 39.3977 71.0123 38.9527 69.3267 38.0625C67.6506 37.1629 66.358 35.875 65.4489 34.1989C64.5492 32.5133 64.0994 30.4962 64.0994 28.1477C64.0994 25.8939 64.554 23.9242 65.4631 22.2386C66.3722 20.553 67.6553 19.2415 69.3125 18.304C70.9697 17.3665 72.9252 16.8977 75.179 16.8977C76.8267 16.8977 78.3182 17.1534 79.6534 17.6648C80.9886 18.1761 82.1297 18.9195 83.0767 19.8949C84.0237 20.8608 84.7528 22.035 85.2642 23.4176C85.7756 24.8002 86.0312 26.358 86.0312 28.0909V29.9091H66.5426V25.5909H78.8153C78.8059 24.9659 78.6449 24.4167 78.3324 23.9432C78.0294 23.4602 77.6174 23.0862 77.0966 22.821C76.5852 22.5464 76.0028 22.4091 75.3494 22.4091C74.715 22.4091 74.1326 22.5464 73.6023 22.821C73.072 23.0862 72.6458 23.4555 72.3239 23.929C72.0114 24.4025 71.8456 24.9564 71.8267 25.5909V30.25C71.8267 30.9508 71.9735 31.5758 72.267 32.125C72.5606 32.6742 72.982 33.1051 73.5312 33.4176C74.0805 33.7301 74.7434 33.8864 75.5199 33.8864C76.0597 33.8864 76.5521 33.8106 76.9972 33.6591C77.4517 33.5076 77.84 33.2898 78.1619 33.0057C78.4839 32.7121 78.7206 32.3617 78.8722 31.9545H86.0312C85.785 33.4697 85.2027 34.786 84.2841 35.9034C83.3655 37.0114 82.1487 37.8731 80.6335 38.4886C79.1278 39.0947 77.3665 39.3977 75.3494 39.3977ZM95.7578 17.1818L98.9396 23.9432L102.292 17.1818H110.076L104.224 28.0909L110.36 39H102.633L98.9396 32.0682L95.3601 39H87.5192L93.7124 28.0909L87.9169 17.1818H95.7578ZM111.72 16.2727V9.90909H137.004V16.2727H128.254V39H120.47V16.2727H111.72ZM147.438 39.3977C145.07 39.3977 143.044 38.929 141.358 37.9915C139.672 37.0445 138.38 35.7282 137.48 34.0426C136.58 32.3475 136.131 30.3826 136.131 28.1477C136.131 25.9129 136.58 23.9527 137.48 22.267C138.38 20.572 139.672 19.2557 141.358 18.3182C143.044 17.3712 145.07 16.8977 147.438 16.8977C149.805 16.8977 151.831 17.3712 153.517 18.3182C155.203 19.2557 156.495 20.572 157.395 22.267C158.295 23.9527 158.744 25.9129 158.744 28.1477C158.744 30.3826 158.295 32.3475 157.395 34.0426C156.495 35.7282 155.203 37.0445 153.517 37.9915C151.831 38.929 149.805 39.3977 147.438 39.3977ZM147.494 33.6023C148.157 33.6023 148.73 33.3797 149.213 32.9347C149.696 32.4896 150.07 31.8551 150.335 31.0312C150.6 30.2074 150.733 29.2273 150.733 28.0909C150.733 26.9451 150.6 25.965 150.335 25.1506C150.07 24.3267 149.696 23.6922 149.213 23.2472C148.73 22.8021 148.157 22.5795 147.494 22.5795C146.794 22.5795 146.192 22.8021 145.69 23.2472C145.188 23.6922 144.805 24.3267 144.54 25.1506C144.275 25.965 144.142 26.9451 144.142 28.0909C144.142 29.2273 144.275 30.2074 144.54 31.0312C144.805 31.8551 145.188 32.4896 145.69 32.9347C146.192 33.3797 146.794 33.6023 147.494 33.6023Z" fill="#4EA8DE"/>
<path d="M169.824 39.2841C168.271 39.2841 166.841 38.8769 165.534 38.0625C164.237 37.2481 163.195 36.0123 162.409 34.3551C161.633 32.6979 161.244 30.6098 161.244 28.0909C161.244 25.4583 161.652 23.3182 162.466 21.6705C163.29 20.0227 164.35 18.8153 165.648 18.0483C166.955 17.2812 168.328 16.8977 169.767 16.8977C170.847 16.8977 171.794 17.0871 172.608 17.4659C173.422 17.8352 174.104 18.3324 174.653 18.9574C175.203 19.5729 175.619 20.25 175.903 20.9886H176.017V9.90909H183.858V39H176.074V35.4205H175.903C175.6 36.1591 175.165 36.822 174.597 37.4091C174.038 37.9867 173.356 38.446 172.551 38.7869C171.756 39.1184 170.847 39.2841 169.824 39.2841ZM172.722 33.2614C173.441 33.2614 174.057 33.053 174.568 32.6364C175.089 32.2102 175.487 31.6136 175.761 30.8466C176.045 30.0701 176.188 29.1515 176.188 28.0909C176.188 27.0114 176.045 26.0881 175.761 25.321C175.487 24.5445 175.089 23.9527 174.568 23.5455C174.057 23.1288 173.441 22.9205 172.722 22.9205C172.002 22.9205 171.386 23.1288 170.875 23.5455C170.373 23.9527 169.985 24.5445 169.71 25.321C169.445 26.0881 169.312 27.0114 169.312 28.0909C169.312 29.1705 169.445 30.0985 169.71 30.875C169.985 31.642 170.373 32.2339 170.875 32.6506C171.386 33.0578 172.002 33.2614 172.722 33.2614ZM198.219 39.3977C195.851 39.3977 193.825 38.929 192.139 37.9915C190.454 37.0445 189.161 35.7282 188.261 34.0426C187.362 32.3475 186.912 30.3826 186.912 28.1477C186.912 25.9129 187.362 23.9527 188.261 22.267C189.161 20.572 190.454 19.2557 192.139 18.3182C193.825 17.3712 195.851 16.8977 198.219 16.8977C200.586 16.8977 202.613 17.3712 204.298 18.3182C205.984 19.2557 207.277 20.572 208.176 22.267C209.076 23.9527 209.526 25.9129 209.526 28.1477C209.526 30.3826 209.076 32.3475 208.176 34.0426C207.277 35.7282 205.984 37.0445 204.298 37.9915C202.613 38.929 200.586 39.3977 198.219 39.3977ZM198.276 33.6023C198.938 33.6023 199.511 33.3797 199.994 32.9347C200.477 32.4896 200.851 31.8551 201.116 31.0312C201.382 30.2074 201.514 29.2273 201.514 28.0909C201.514 26.9451 201.382 25.965 201.116 25.1506C200.851 24.3267 200.477 23.6922 199.994 23.2472C199.511 22.8021 198.938 22.5795 198.276 22.5795C197.575 22.5795 196.973 22.8021 196.472 23.2472C195.97 23.6922 195.586 24.3267 195.321 25.1506C195.056 25.965 194.923 26.9451 194.923 28.0909C194.923 29.2273 195.056 30.2074 195.321 31.0312C195.586 31.8551 195.97 32.4896 196.472 32.9347C196.973 33.3797 197.575 33.6023 198.276 33.6023Z" fill="#5E60CE"/>
<g clip-path="url(#clip0_4130_509)">
<path d="M11.0215 12.933C14.1472 16.9011 15.8158 21.7944 15.7553 26.8155V28.0141L16.7865 28.6416C18.119 29.4482 19.1127 30.6993 19.5866 32.1669C19.1705 31.8605 18.7352 31.5803 18.2833 31.3278L15.5333 29.7838L15.0391 32.9001C14.9963 33.1755 14.9389 33.4485 14.8672 33.718H7.16151C7.04692 33.3655 6.95382 33.0129 6.86789 32.6463L6.24484 29.8261L3.70968 31.2362C3.28615 31.473 2.87723 31.7344 2.48507 32.0188C2.96824 30.5682 3.94123 29.3242 5.24224 28.4935L6.22336 27.866V26.7521C6.24106 21.7513 7.92967 16.8952 11.0287 12.933H11.0215ZM11.0287 10C10.868 10.0004 10.7128 10.058 10.5918 10.1622L10.5274 10.2186C6.39778 14.7656 4.10466 20.6454 4.08208 26.745C2.32967 27.8643 1.03251 29.5543 0.417263 31.5197C-0.197979 33.485 -0.0921719 35.6007 0.716194 37.4971C1.56776 35.6455 2.99131 34.1058 4.7839 33.0975C4.96368 33.8642 5.2031 34.6161 5.50005 35.3467C5.53771 35.4871 5.62118 35.6114 5.73763 35.7006C5.85408 35.7898 5.99706 35.8388 6.14458 35.8402H16.0847C16.2852 35.8402 16.4857 35.6498 16.586 35.3537C16.8758 34.6592 17.0778 33.9322 17.1875 33.1892C18.9836 34.1932 20.4083 35.7342 21.2553 37.5887C22.1124 35.7017 22.2451 33.5727 21.6287 31.5967C21.0124 29.6206 19.6888 27.9319 17.9037 26.8437C17.9745 20.7082 15.6935 14.7718 11.5157 10.2186C11.4535 10.1501 11.3773 10.0952 11.2922 10.0576C11.2071 10.0199 11.1149 10.0003 11.0215 10H11.0287Z" fill="#4EA8DE"/>
<path d="M11.0216 26.1598C10.4715 26.1598 9.93376 25.9995 9.47611 25.699C9.01846 25.3986 8.6614 24.9715 8.44993 24.4716C8.23847 23.9716 8.18206 23.4213 8.28782 22.8898C8.39358 22.3584 8.65678 21.8697 9.04423 21.4853C9.43169 21.1009 9.92606 20.838 10.465 20.7298C11.004 20.6216 11.5634 20.6729 12.0728 20.8773C12.5822 21.0816 13.0188 21.4298 13.3275 21.8781C13.6361 22.3263 13.8031 22.8545 13.8074 23.396C13.8159 23.7469 13.7542 24.0961 13.6256 24.4235C13.4971 24.751 13.3043 25.0503 13.0582 25.3043C12.8121 25.5583 12.5176 25.7622 12.1915 25.9041C11.8654 26.0461 11.5141 26.1234 11.1576 26.1316C11.1126 26.1387 11.0666 26.1387 11.0216 26.1316V26.1598Z" fill="#4EA8DE"/>
<path d="M14.8959 37.5958C14.7167 37.5901 14.5382 37.6198 14.3708 37.683C14.2034 37.7462 14.0505 37.8416 13.9211 37.9638C13.7917 38.086 13.6884 38.2323 13.6172 38.3943C13.546 38.5563 13.5084 38.7307 13.5066 38.9072V43.067C13.5066 43.4297 13.653 43.7776 13.9135 44.0342C14.1741 44.2907 14.5274 44.4348 14.8959 44.4348C15.2644 44.4348 15.6178 44.2907 15.8783 44.0342C16.1389 43.7776 16.2852 43.4297 16.2852 43.067V38.9636C16.291 38.7877 16.2611 38.6126 16.1973 38.4482C16.1336 38.2839 16.0372 38.1337 15.9139 38.0064C15.7906 37.879 15.6428 37.7772 15.4791 37.7067C15.3154 37.6362 15.139 37.5985 14.9604 37.5958H14.8959Z" fill="#5E60CE"/>
<path d="M7.16154 37.5957C6.97931 37.5863 6.797 37.6129 6.62546 37.6742C6.45392 37.7355 6.29665 37.8302 6.16302 37.9525C6.02939 38.0749 5.92213 38.2224 5.84761 38.3864C5.77309 38.5504 5.73284 38.7275 5.72925 38.9071V43.067C5.72925 43.4297 5.87562 43.7776 6.13617 44.0341C6.39672 44.2906 6.7501 44.4348 7.11857 44.4348C7.48704 44.4348 7.84042 44.2906 8.10097 44.0341C8.36152 43.7776 8.50789 43.4297 8.50789 43.067V38.9635C8.51362 38.7877 8.48373 38.6125 8.41998 38.4482C8.35623 38.2838 8.25989 38.1336 8.13658 38.0063C8.01326 37.879 7.86544 37.7771 7.70173 37.7067C7.53802 37.6362 7.36169 37.5985 7.18302 37.5957H7.16154Z" fill="#5E60CE"/>
<path d="M10.9213 37.5958C10.7426 37.592 10.5649 37.623 10.3984 37.6869C10.2318 37.7507 10.0797 37.8463 9.95068 37.9681C9.82167 38.0899 9.71828 38.2355 9.64644 38.3966C9.5746 38.5577 9.5357 38.7312 9.53198 38.9072V44.6392C9.53198 45.002 9.67836 45.3499 9.93891 45.6064C10.1995 45.8629 10.5528 46.007 10.9213 46.007C11.2898 46.007 11.6432 45.8629 11.9037 45.6064C12.1643 45.3499 12.3106 45.002 12.3106 44.6392V38.9988C12.3164 38.823 12.2865 38.6478 12.2227 38.4835C12.159 38.3191 12.0626 38.1689 11.9393 38.0416C11.816 37.9143 11.6682 37.8124 11.5045 37.7419C11.3408 37.6714 11.1644 37.6337 10.9858 37.631L10.9213 37.5958Z" fill="#5E60CE"/>
</g>
<defs>
<clipPath id="clip0_4130_509">
<rect width="22" height="36" fill="white" transform="translate(0 10)"/>
</clipPath>
</defs>
</svg>
